<?xml version="1.0" standalone="no"?>
<!DOCTYPE svg PUBLIC "-//W3C//DTD SVG 20010904//EN"
 "http://www.w3.org/TR/2001/REC-SVG-20010904/DTD/svg10.dtd">
<svg version="1.0" xmlns="http://www.w3.org/2000/svg"
 width="500.000000pt" height="500.000000pt" viewBox="0 0 500.000000 500.000000"
 preserveAspectRatio="xMidYMid meet">

<g transform="translate(0.000000,500.000000) scale(0.100000,-0.100000)"
fill="#000000" stroke="none">
<path d="M0 2500 l0 -2500 2500 0 2500 0 0 2500 0 2500 -2500 0 -2500 0 0
-2500z m3764 1437 l70 -42 49 -165 48 -164 -70 -102 -70 -103 2 -141 2 -141
-73 -65 c-48 -44 -72 -73 -72 -87 0 -12 11 -66 24 -120 l23 -98 -38 -217 c-22
-119 -42 -235 -46 -257 -3 -22 -35 -96 -71 -165 -58 -110 -77 -137 -167 -230
-86 -89 -110 -121 -152 -205 -32 -62 -57 -130 -68 -180 -20 -91 -23 -97 -116
-215 -65 -82 -71 -87 -122 -99 -121 -27 -121 -27 -208 -126 l-83 -95 -106 0
-105 0 -90 90 c-87 88 -93 92 -175 117 -47 14 -97 32 -111 39 -14 7 -57 61
-96 121 -63 96 -73 118 -88 193 -28 137 -78 225 -205 355 -83 85 -125 140
-187 240 l-81 130 -36 226 c-20 125 -36 240 -36 256 0 17 11 79 25 139 19 85
22 111 12 120 -7 6 -43 37 -80 69 l-68 59 6 110 c3 61 8 125 10 141 4 26 -5
42 -71 118 l-76 87 52 174 53 175 68 45 c38 25 74 46 81 46 7 0 56 -10 108
-21 94 -22 97 -23 299 -162 l205 -140 290 57 291 56 255 -44 c140 -25 269 -48
286 -52 28 -5 51 8 235 137 188 131 210 144 279 160 107 25 117 23 194 -24z"/>
<path d="M3583 3950 c-40 -9 -92 -30 -115 -46 -24 -16 -119 -81 -211 -144
l-168 -115 73 -17 c40 -10 99 -27 131 -38 31 -11 59 -20 62 -20 3 0 243 293
318 388 12 16 2 15 -90 -8z"/>
<path d="M1242 3913 c-51 -37 -61 -49 -56 -65 4 -13 2 -18 -4 -14 -7 4 -19
-22 -32 -66 -12 -40 -32 -109 -46 -153 -27 -91 -30 -81 59 -179 l54 -60 13 70
c24 138 24 167 0 238 -12 37 -20 69 -18 72 3 2 13 -23 23 -56 10 -33 20 -59
22 -57 6 7 54 289 51 302 -2 8 -26 -3 -66 -32z"/>
<path d="M1340 3952 c0 -11 255 -392 262 -392 9 0 6 19 -33 200 -16 73 -33
138 -38 143 -11 11 -191 57 -191 49z"/>
<path d="M3740 3685 c25 -151 49 -277 52 -280 4 -5 98 112 120 150 4 6 -15 84
-41 174 l-48 162 -61 35 c-34 19 -64 34 -66 34 -2 0 18 -124 44 -275z"/>
<path d="M1320 3937 c0 -5 -21 -132 -46 -283 -25 -152 -44 -277 -42 -280 7 -6
368 139 368 148 0 8 -253 393 -271 413 -5 5 -9 6 -9 2z"/>
<path d="M3529 3760 c-79 -100 -144 -185 -144 -191 0 -5 45 -28 100 -50 118
-48 288 -129 282 -136 -3 -2 -47 17 -98 43 -102 51 -266 117 -279 112 -6 -2
111 -276 233 -543 14 -29 15 -26 78 162 35 106 65 190 67 189 2 -2 -22 -82
-52 -177 -31 -95 -56 -176 -56 -182 0 -5 27 15 61 44 l60 52 -2 156 c-1 134
-8 195 -48 428 -25 150 -48 273 -52 273 -3 0 -70 -81 -150 -180z"/>
<path d="M1554 3873 c9 -22 53 -235 62 -295 3 -27 11 -48 16 -48 19 0 278 105
276 112 -3 8 -346 248 -355 248 -3 0 -2 -8 1 -17z"/>
<path d="M2295 3699 l-230 -47 469 -1 c258 0 467 1 464 4 -3 3 -94 21 -203 40
-108 20 -214 39 -234 43 -26 5 -96 -5 -266 -39z"/>
<path d="M1960 3630 c0 -3 10 -11 23 -19 12 -8 126 -89 252 -181 127 -91 236
-170 243 -174 10 -6 12 32 10 186 l-3 193 -262 0 c-145 0 -263 -2 -263 -5z"/>
<path d="M2500 3446 c0 -107 4 -197 9 -200 5 -3 55 29 112 72 57 43 177 131
267 196 89 65 162 120 162 122 0 2 -124 4 -275 4 l-275 0 0 -194z"/>
<path d="M3119 3524 c26 -60 76 -173 111 -252 39 -89 66 -139 71 -131 4 7 10
49 14 93 4 45 13 130 21 190 8 61 14 115 14 122 0 14 -167 71 -236 81 l-44 6
49 -109z"/>
<path d="M1755 3565 c-81 -33 -129 -58 -128 -67 24 -168 56 -358 62 -373 l9
-20 8 20 c4 11 52 123 106 250 54 126 98 233 98 237 0 14 -23 7 -155 -47z"/>
<path d="M1995 3487 c28 -72 69 -183 89 -244 21 -62 40 -113 43 -113 10 0 338
92 346 97 5 3 -9 17 -30 33 -21 15 -137 99 -258 187 -121 87 -225 162 -231
166 -7 4 12 -53 41 -126z"/>
<path d="M2790 3424 c-140 -102 -256 -189 -258 -194 -4 -11 338 -94 347 -84
11 13 174 464 168 464 -1 0 -117 -84 -257 -186z"/>
<path d="M1930 3183 l1 -408 90 173 90 172 -37 108 c-45 131 -134 362 -140
362 -2 0 -4 -183 -4 -407z"/>
<path d="M1907 3573 c-2 -5 -50 -117 -107 -251 l-102 -242 47 -133 c26 -72 48
-137 50 -143 3 -10 77 -34 107 -34 10 0 14 80 16 405 1 223 0 405 -2 405 -3 0
-7 -3 -9 -7z"/>
<path d="M3031 3512 c-12 -37 -50 -140 -83 -230 l-61 -162 63 -163 c34 -89 66
-166 70 -170 4 -4 10 63 14 150 3 87 11 265 17 396 6 132 9 240 7 242 -2 2
-14 -26 -27 -63z"/>
<path d="M3056 3174 c-14 -320 -15 -408 -5 -414 8 -6 7 -9 -6 -11 -13 -3 -35
-42 -71 -124 -29 -66 -51 -122 -49 -124 2 -2 40 17 84 43 74 42 85 46 148 46
51 0 81 -6 121 -25 30 -14 56 -25 58 -25 4 0 -116 231 -126 243 -4 5 -35 1
-70 -8 -34 -9 -64 -14 -67 -11 -2 2 20 10 50 17 31 6 60 15 65 18 5 3 32 70
59 149 l51 144 -106 236 c-58 130 -108 240 -112 245 -3 4 -14 -176 -24 -399z"/>
<path d="M3352 3465 c-7 -50 -16 -135 -22 -190 -5 -55 -12 -117 -16 -137 -4
-24 -2 -38 5 -38 6 0 74 -29 152 -65 79 -36 144 -64 146 -62 2 3 -134 316
-240 552 -13 28 -14 26 -25 -60z"/>
<path d="M1416 3430 c-135 -54 -172 -73 -178 -91 -8 -20 -30 -262 -25 -264 1
-1 32 -27 70 -58 37 -31 73 -54 80 -51 6 2 52 97 101 210 49 112 90 203 92
201 2 -2 -37 -97 -87 -211 -50 -114 -88 -210 -86 -212 4 -4 284 120 294 130 8
8 -60 405 -68 400 -5 -3 -9 0 -9 5 0 15 4 16 -184 -59z m160 -17 c-8 -15 -15
-25 -16 -21 0 12 23 58 27 54 3 -2 -2 -17 -11 -33z m-217 -438 c0 -5 -27 69
-60 165 -32 96 -59 179 -58 185 0 5 27 -69 60 -165 32 -96 59 -179 58 -185z"/>
<path d="M2510 3211 c-2 -30 2 -816 4 -818 7 -7 219 75 226 88 5 8 27 109 50
224 22 116 50 256 62 313 11 56 19 104 17 106 -11 8 -359 93 -359 87z"/>
<path d="M2295 3163 c-88 -25 -162 -47 -164 -49 -3 -3 119 -569 135 -625 2 -9
22 -21 44 -28 22 -6 71 -25 110 -40 40 -17 73 -25 76 -19 3 5 3 189 -2 409 -6
358 -8 399 -23 398 -9 -1 -88 -22 -176 -46z"/>
<path d="M2021 2922 l-84 -168 85 -144 c46 -80 108 -187 137 -238 29 -51 56
-90 60 -87 3 4 11 32 18 63 l12 57 -5 -60 c-6 -65 -31 -133 -105 -292 l-48
-103 41 -11 c90 -24 84 -28 168 126 42 77 99 175 128 217 29 42 52 81 52 85 0
7 -189 84 -207 84 -5 0 -11 -10 -14 -23 -5 -16 -6 -11 -6 17 0 42 -133 645
-143 645 -3 0 -43 -76 -89 -168z"/>
<path d="M3305 3078 c-62 -172 -93 -268 -87 -271 4 -3 30 -8 57 -11 28 -4 128
-23 224 -42 96 -19 175 -33 177 -32 4 5 -47 223 -54 230 -8 8 -297 138 -306
138 -4 0 -9 -6 -11 -12z"/>
<path d="M2877 3070 c-3 -8 -28 -134 -57 -280 -55 -283 -78 -386 -79 -358 -1
18 3 19 -208 -57 -8 -3 17 -51 69 -132 45 -70 106 -171 135 -223 30 -52 58
-99 62 -103 12 -12 136 37 133 52 -1 7 -36 70 -77 140 -62 106 -76 139 -90
209 -10 46 -15 85 -12 88 2 2 10 -24 17 -58 7 -35 16 -69 19 -76 4 -7 57 98
119 234 l112 246 -61 152 c-74 182 -76 186 -82 166z"/>
<path d="M1530 3004 c-80 -36 -149 -70 -154 -74 -9 -9 -57 -212 -51 -218 5 -6
445 75 453 82 9 10 -84 276 -96 276 -4 0 -72 -30 -152 -66z"/>
<path d="M3237 2759 c11 -19 46 -84 77 -145 54 -106 58 -112 130 -162 41 -29
76 -52 78 -52 2 0 35 63 73 140 38 76 71 138 73 136 1 -2 -28 -68 -65 -147
l-69 -144 23 -80 c13 -44 26 -87 29 -95 9 -21 94 439 88 472 -3 16 -13 28 -27
31 -43 11 -333 66 -381 73 l-49 7 20 -34z"/>
<path d="M1759 2776 c-2 -2 -96 -21 -209 -41 -113 -21 -208 -41 -213 -45 -12
-11 117 -310 134 -310 5 0 44 26 87 58 l78 57 67 139 c58 121 73 157 56 142z"/>
<path d="M1745 2683 c-62 -128 -76 -163 -70 -163 3 0 28 11 55 25 41 21 63 25
137 25 86 0 88 -1 145 -41 32 -22 58 -37 58 -32 -1 4 -31 62 -69 127 l-68 119
-64 18 c-35 10 -67 18 -71 19 -4 0 -28 -44 -53 -97z"/>
<path d="M1341 2595 c0 -5 13 -93 29 -195 16 -102 30 -191 30 -197 0 -34 19
-5 40 62 l23 75 -50 107 c-27 60 -55 119 -61 133 -6 14 -11 21 -11 15z"/>
<path d="M3094 2521 c-7 -54 -16 -61 -86 -61 -25 0 -40 6 -47 17 -9 17 -11 17
-38 -3 -63 -47 -30 -93 72 -102 l66 -5 50 49 c46 46 49 51 49 101 0 52 -1 53
-30 53 -28 0 -30 -3 -36 -49z"/>
<path d="M3170 2511 c0 -58 0 -59 -56 -111 l-55 -52 -67 7 c-45 4 -74 13 -88
26 -11 10 -23 19 -26 19 -5 0 -48 -93 -48 -105 0 -4 14 4 31 16 28 19 40 21
119 17 l89 -5 70 50 71 50 0 74 c0 66 -2 73 -20 73 -18 0 -20 -7 -20 -59z"/>
<path d="M3230 2499 c0 -69 1 -73 53 -147 l52 -76 6 65 c4 35 7 88 8 116 l1
53 -60 30 -60 30 0 -71z"/>
<path d="M1800 2480 l0 -69 73 -43 72 -42 91 3 91 3 39 -47 c21 -26 40 -43 41
-38 2 6 -15 42 -38 82 l-41 72 -22 -20 c-17 -16 -36 -20 -96 -21 -41 -1 -81
-1 -87 -1 -7 1 -31 24 -53 52 -33 42 -40 59 -40 95 0 32 -4 44 -15 44 -12 0
-15 -14 -15 -70z"/>
<path d="M1850 2507 c0 -37 6 -51 38 -87 l38 -43 75 2 c57 2 78 6 93 21 23 22
17 41 -18 60 -22 11 -29 12 -35 1 -5 -8 -25 -11 -57 -9 l-49 3 -5 45 c-5 44
-6 45 -42 48 l-38 3 0 -44z"/>
<path d="M3018 2529 c-53 -28 -50 -49 7 -49 45 0 45 0 45 35 0 40 -2 41 -52
14z"/>
<path d="M1723 2519 l-43 -20 0 -132 0 -132 50 83 c47 79 50 87 50 153 0 38
-3 69 -7 68 -5 0 -27 -9 -50 -20z"/>
<path d="M1950 2505 c0 -33 2 -35 35 -35 44 0 46 21 6 49 -39 28 -41 27 -41
-14z"/>
<path d="M1567 2425 l-87 -66 41 -82 c23 -45 59 -111 80 -147 42 -70 94 -136
85 -108 -14 47 -29 207 -30 330 -1 76 -1 138 -2 138 -1 0 -40 -29 -87 -65z"/>
<path d="M3366 2452 c-3 -20 -6 -71 -6 -113 0 -42 -9 -121 -20 -174 -11 -53
-20 -105 -20 -114 0 -9 43 62 96 158 109 197 109 172 8 244 l-51 37 -7 -38z"/>
<path d="M3157 2361 c-65 -43 -68 -47 -62 -76 3 -16 22 -115 42 -220 19 -104
37 -192 40 -195 2 -2 28 20 58 50 l54 55 20 117 c12 64 21 127 21 140 0 13
-24 57 -53 99 l-52 76 -68 -46z"/>
<path d="M1736 2289 l-57 -102 16 -101 16 -101 57 -51 c36 -33 59 -48 63 -40
4 6 25 94 48 196 23 102 44 193 47 202 4 13 -10 27 -50 53 -31 20 -62 38 -69
41 -9 3 -33 -29 -71 -97z"/>
<path d="M3473 2284 c-28 -49 -77 -138 -109 -199 -37 -71 -80 -135 -121 -180
-42 -46 -67 -83 -74 -110 -5 -22 -16 -59 -23 -81 -11 -38 -10 -45 8 -78 12
-20 23 -36 26 -36 3 0 22 33 44 73 26 50 69 103 136 172 78 79 111 123 159
209 34 60 61 116 61 125 0 9 -13 56 -28 105 l-28 89 -51 -89z"/>
<path d="M2429 2237 c-131 -223 -206 -363 -229 -427 -13 -36 -27 -70 -31 -76
-7 -8 19 -107 47 -184 4 -10 11 -4 25 23 23 44 35 45 134 17 101 -29 218 -27
305 4 l68 25 12 -29 c25 -60 37 -56 50 17 17 96 -7 260 -49 330 -16 26 -49 82
-73 123 -82 136 -180 290 -187 290 -3 0 -36 -51 -72 -113z"/>
<path d="M1452 2252 c-12 -38 -22 -74 -22 -80 0 -7 29 -59 65 -116 l66 -105
52 19 c29 10 51 22 50 26 -1 5 -22 40 -48 79 -26 38 -65 104 -86 145 -56 109
-52 108 -77 32z"/>
<path d="M1960 2302 c0 -5 18 -58 40 -118 23 -60 49 -131 59 -159 l18 -50 59
117 58 117 -35 50 -34 51 -82 0 c-46 0 -83 -4 -83 -8z"/>
<path d="M2848 2282 c-21 -15 -39 -32 -42 -38 -4 -11 124 -234 134 -234 7 1
120 272 120 288 0 8 -25 12 -87 12 -80 -1 -92 -3 -125 -28z"/>
<path d="M1931 2225 c-7 -33 -28 -129 -48 -213 l-35 -154 22 -89 c12 -50 24
-89 25 -87 15 18 165 268 165 275 0 7 -68 197 -108 303 -8 23 -11 19 -21 -35z"/>
<path d="M3063 2263 c-4 -10 -30 -76 -59 -147 -43 -106 -51 -133 -42 -150 13
-26 150 -259 155 -266 8 -9 21 23 33 81 12 56 10 72 -30 279 -23 121 -44 220
-46 220 -3 0 -8 -8 -11 -17z"/>
<path d="M1616 1953 l-49 -15 89 -90 89 -89 37 43 c21 24 38 46 38 49 0 15
-122 119 -138 118 -9 -1 -39 -8 -66 -16z"/>
<path d="M2872 1912 c-38 -16 -61 -31 -58 -38 3 -7 10 -49 17 -93 10 -64 10
-98 0 -162 -7 -44 -14 -86 -17 -92 -4 -12 234 -123 286 -134 26 -5 27 -3 48
91 l21 95 -107 180 c-59 100 -111 180 -117 180 -5 -1 -38 -13 -73 -27z"/>
<path d="M1961 1750 l-112 -182 17 -78 c9 -43 20 -83 24 -91 6 -9 44 3 160 51
136 57 151 65 146 84 -3 12 -16 60 -28 107 l-22 86 27 74 c15 41 27 79 27 84
-1 10 -43 27 -96 39 -30 7 -31 6 -143 -174z"/>
<path d="M1792 1781 l-32 -40 38 -70 c20 -39 40 -71 44 -71 4 0 14 12 21 28
12 23 11 38 -5 110 -11 45 -23 82 -27 82 -4 0 -22 -18 -39 -39z"/>
<path d="M2257 1555 c-9 -19 -13 -36 -9 -39 4 -2 35 -10 69 -16 69 -14 75 -18
93 -73 9 -28 22 -43 50 -57 48 -24 60 -25 104 -3 25 12 40 29 54 63 16 39 25
48 53 54 18 3 50 11 71 17 l39 10 -22 39 c-13 22 -28 40 -35 40 -8 0 -36 -9
-64 -20 -37 -14 -74 -20 -135 -20 -55 0 -111 7 -157 20 -40 11 -77 20 -83 20
-6 0 -19 -16 -28 -35z"/>
<path d="M2064 1434 c-82 -35 -148 -68 -146 -74 1 -6 29 -51 61 -98 l58 -87
89 -27 89 -27 143 56 142 56 0 42 c0 42 -1 43 -62 73 -35 18 -99 58 -144 90
l-81 59 -149 -63z"/>
<path d="M2275 1483 c14 -15 109 -72 113 -69 2 2 0 15 -3 29 -5 19 -15 26 -45
31 -21 3 -47 9 -57 12 -12 5 -15 4 -8 -3z"/>
<path d="M2715 1434 c-38 -30 -98 -69 -132 -86 -62 -30 -63 -31 -63 -73 l0
-42 142 -53 c157 -58 131 -56 270 -19 30 8 51 27 112 106 l76 97 -72 27 c-40
14 -108 43 -152 63 -43 20 -86 36 -95 35 -9 0 -47 -25 -86 -55z"/>
<path d="M2671 1461 c-21 -6 -51 -51 -34 -51 8 0 83 51 83 56 0 5 -20 3 -49
-5z"/>
<path d="M2425 1185 c-88 -38 -85 -41 20 -21 59 12 82 12 149 0 44 -7 81 -12
83 -10 4 3 -154 66 -165 66 -4 -1 -43 -16 -87 -35z"/>
<path d="M2370 1138 c-58 -11 -110 -22 -117 -24 -6 -1 30 -44 81 -93 l92 -91
95 0 96 0 76 85 c43 47 77 89 77 93 0 10 -226 53 -265 51 -16 -1 -77 -10 -135
-21z"/>
</g>
</svg>
