<?xml version="1.0" standalone="no"?>
<!DOCTYPE svg PUBLIC "-//W3C//DTD SVG 20010904//EN"
 "http://www.w3.org/TR/2001/REC-SVG-20010904/DTD/svg10.dtd">
<svg version="1.0" xmlns="http://www.w3.org/2000/svg"
 width="500.000000pt" height="500.000000pt" viewBox="0 0 500.000000 500.000000"
 preserveAspectRatio="xMidYMid meet">

<g transform="translate(0.000000,500.000000) scale(0.100000,-0.100000)"
fill="#000000" stroke="none">
<path d="M0 2500 l0 -2500 2500 0 2500 0 0 2500 0 2500 -2500 0 -2500 0 0
-2500z m3755 1495 c35 -20 68 -41 73 -48 5 -7 31 -83 57 -171 l46 -158 -27
-42 c-15 -22 -47 -68 -71 -100 l-43 -60 2 -138 2 -138 -72 -73 c-41 -42 -72
-81 -72 -92 0 -11 11 -64 24 -118 13 -53 21 -107 19 -120 -2 -12 -23 -130 -47
-262 l-44 -240 -67 -125 c-58 -109 -79 -138 -165 -225 -83 -85 -105 -115 -148
-200 -28 -57 -59 -138 -71 -189 -20 -82 -28 -97 -93 -180 -39 -50 -77 -96 -84
-102 -7 -6 -50 -19 -95 -29 l-82 -19 -86 -98 -86 -97 -105 -1 -105 0 -95 93
c-95 93 -95 93 -198 126 l-103 32 -67 102 c-79 120 -79 121 -99 217 -9 43 -34
113 -59 162 -37 73 -61 104 -143 185 -70 70 -117 127 -161 198 -34 55 -73 116
-85 135 -19 28 -31 81 -59 261 -20 125 -36 240 -36 258 0 27 31 182 45 232 4
10 -22 38 -76 84 l-80 68 6 111 c3 61 8 125 11 143 4 29 -3 41 -72 118 l-76
86 45 152 c25 84 50 164 55 178 12 31 129 109 163 109 13 0 65 -11 114 -23 86
-22 99 -29 290 -161 l199 -138 290 58 290 57 270 -48 c149 -27 280 -49 291
-49 11 0 110 62 219 139 177 123 207 141 270 156 101 25 120 23 191 -16z"/>
<path d="M3575 4001 c-61 -15 -95 -35 -278 -161 l-209 -143 89 -23 c48 -12
108 -29 132 -38 24 -9 45 -16 46 -16 2 0 69 82 150 183 82 100 155 190 163
200 14 15 13 17 -4 16 -10 -1 -50 -9 -89 -18z"/>
<path d="M1248 3969 c-32 -22 -62 -47 -67 -57 -5 -9 -30 -86 -55 -171 l-46
-154 38 -44 c20 -25 49 -59 64 -76 14 -18 29 -29 32 -26 4 3 13 48 22 100 14
87 14 124 -1 189 -3 14 1 9 9 -10 l13 -35 7 35 c4 19 15 80 25 135 35 183 22
67 -20 -181 -23 -135 -39 -247 -38 -249 6 -5 368 139 369 147 0 4 -62 100
-137 214 -108 163 -138 203 -144 188 -6 -16 -7 -15 -10 7 l-4 27 -57 -39z"/>
<path d="M1342 3998 c8 -19 236 -358 255 -378 13 -13 14 -12 9 10 -64 309 -70
330 -85 334 -9 3 -45 12 -81 20 -36 8 -74 18 -84 22 -15 6 -18 4 -14 -8z"/>
<path d="M3740 3735 c26 -152 49 -278 52 -281 3 -2 33 33 66 79 l61 84 -47
162 -47 162 -60 35 c-33 18 -63 34 -66 34 -3 0 15 -124 41 -275z"/>
<path d="M3526 3808 c-80 -101 -146 -186 -146 -190 0 -3 33 -19 73 -34 39 -15
128 -53 196 -86 68 -32 126 -57 127 -55 6 5 -91 547 -98 547 -3 0 -72 -82
-152 -182z"/>
<path d="M1555 3923 c9 -25 51 -226 60 -290 4 -29 10 -53 14 -53 13 0 266 101
274 109 7 7 -331 251 -348 251 -4 0 -4 -8 0 -17z"/>
<path d="M2305 3754 c-115 -23 -217 -45 -225 -47 -21 -7 661 -5 795 2 l110 6
-215 38 c-118 20 -224 39 -235 41 -11 2 -114 -16 -230 -40z"/>
<path d="M1964 3682 c4 -7 413 -306 506 -371 20 -13 20 -11 20 183 l0 196
-266 0 c-146 0 -263 -4 -260 -8z"/>
<path d="M2500 3497 c0 -107 3 -197 7 -200 3 -4 20 4 38 17 17 13 135 99 261
191 126 92 233 171 238 176 6 5 -107 9 -267 9 l-277 0 0 -193z"/>
<path d="M3088 3644 c10 -21 61 -135 112 -252 55 -125 96 -208 101 -201 4 6
10 46 14 88 3 42 13 132 22 200 8 67 11 126 6 131 -14 12 -184 63 -231 68
l-44 5 20 -39z"/>
<path d="M1775 3625 c-60 -25 -119 -49 -131 -54 l-21 -9 33 -197 c17 -108 34
-198 37 -201 4 -4 217 485 217 500 0 12 -26 4 -135 -39z"/>
<path d="M1982 3573 c21 -54 62 -163 90 -243 27 -80 51 -146 53 -148 5 -5 342
93 344 101 1 7 -513 387 -523 387 -3 0 14 -44 36 -97z"/>
<path d="M3026 3652 c-2 -4 -115 -88 -250 -187 -135 -98 -246 -181 -246 -185
0 -3 77 -25 172 -48 135 -34 173 -40 179 -30 23 37 169 458 159 458 -5 0 -11
-4 -14 -8z"/>
<path d="M1930 3239 l0 -414 91 173 90 173 -22 67 c-28 86 -148 404 -154 410
-3 3 -5 -181 -5 -409z"/>
<path d="M1891 3588 c-10 -24 -57 -136 -106 -250 l-87 -206 52 -145 52 -144
50 -12 c27 -6 53 -11 56 -11 4 0 8 182 10 405 1 223 0 405 -3 405 -3 0 -14
-19 -24 -42z"/>
<path d="M3030 3562 c-12 -37 -50 -140 -83 -230 l-60 -162 63 -163 c35 -89 67
-166 70 -170 4 -4 10 63 14 150 3 87 11 265 17 396 6 132 9 241 7 243 -3 2
-15 -27 -28 -64z"/>
<path d="M3056 3224 c-10 -223 -15 -408 -12 -411 3 -3 -1 -11 -8 -17 -14 -11
-118 -237 -112 -243 2 -2 39 17 83 42 75 42 86 45 152 45 57 0 82 -5 121 -25
28 -14 50 -20 50 -14 0 19 -121 239 -132 239 -6 0 -37 -7 -70 -16 -33 -8 -62
-13 -65 -11 -2 3 27 12 64 21 l68 17 49 140 c26 77 50 138 53 135 2 -2 -16
-63 -41 -135 -45 -130 -45 -131 -23 -136 12 -2 76 -14 142 -25 66 -12 160 -30
209 -40 49 -11 90 -19 92 -17 2 2 -45 230 -49 233 -5 3 -303 132 -317 137 -8
2 -62 110 -119 238 -56 129 -106 237 -110 242 -4 4 -15 -175 -25 -399z"/>
<path d="M3360 3595 c0 -5 -11 -104 -25 -220 -13 -115 -22 -212 -19 -215 8 -8
299 -138 302 -136 1 2 -47 115 -108 251 -61 136 -109 250 -106 252 3 3 162
-344 213 -466 8 -18 18 -30 23 -25 4 5 30 76 56 157 27 81 50 144 51 140 2 -5
-17 -69 -42 -143 -25 -74 -45 -140 -45 -148 0 -7 27 11 60 40 l60 53 0 135 c0
94 -3 130 -10 120 -8 -11 -9 -8 -5 11 6 25 1 29 -97 77 -100 49 -169 78 -252
108 -33 12 -37 12 -32 -1 16 -41 15 -47 -3 -15 -11 19 -20 31 -21 25z"/>
<path d="M1417 3482 c-92 -37 -172 -74 -177 -82 -5 -8 -11 -48 -15 -90 -3 -41
-8 -98 -10 -127 l-5 -52 71 -60 c62 -52 99 -68 99 -41 0 12 162 381 166 377 2
-2 -35 -93 -82 -201 -47 -109 -84 -199 -82 -201 3 -4 288 121 296 130 2 2 -11
95 -29 206 -29 182 -33 200 -47 183 -13 -18 -14 -18 -7 4 3 12 3 22 -2 21 -4
0 -84 -30 -176 -67z m149 -39 c-8 -15 -15 -25 -16 -21 0 12 23 58 27 54 3 -2
-2 -17 -11 -33z m-256 -254 c28 -89 49 -163 47 -165 -2 -2 -25 65 -52 149 -26
83 -50 158 -53 165 -2 6 -2 12 1 12 3 0 28 -72 57 -161z"/>
<path d="M2320 3220 c-91 -25 -171 -48 -179 -51 -12 -4 -3 -59 53 -310 38
-167 72 -310 76 -318 7 -13 156 -76 208 -88 l24 -6 -7 409 c-4 225 -8 409 -9
410 0 0 -75 -20 -166 -46z"/>
<path d="M2509 3263 c-2 -4 -3 -191 -1 -415 l3 -407 111 39 c62 22 115 45 119
52 8 13 131 639 127 644 -2 1 -76 21 -164 43 -89 22 -168 43 -176 46 -9 4 -18
3 -19 -2z"/>
<path d="M2021 2973 l-83 -168 99 -170 c55 -93 117 -201 138 -238 41 -76 49
-75 60 6 4 26 9 46 12 43 16 -16 -25 -155 -86 -292 l-67 -152 60 -17 c72 -20
60 -30 147 135 34 63 87 155 120 203 32 49 59 92 59 96 0 8 -190 84 -207 83
-4 -1 -11 -11 -14 -24 -5 -16 -7 -11 -6 17 2 41 -132 645 -143 645 -3 0 -43
-75 -89 -167z"/>
<path d="M2881 3140 c-1 -3 -30 -150 -66 -328 l-65 -323 19 -85 c11 -47 21
-87 23 -89 2 -2 54 107 116 243 l112 247 -61 150 c-76 188 -78 191 -78 185z"/>
<path d="M1525 3054 c-77 -35 -144 -65 -148 -67 -8 -2 -58 -219 -53 -225 4 -4
450 79 456 84 9 10 -88 269 -101 271 -8 1 -77 -27 -154 -63z"/>
<path d="M3230 2834 c0 -3 31 -67 70 -142 69 -136 71 -138 142 -187 40 -27 75
-51 78 -53 3 -1 37 61 75 138 38 76 71 138 72 136 2 -2 -27 -67 -65 -145 l-68
-143 23 -81 c13 -45 26 -89 29 -97 9 -20 95 449 88 477 -7 27 3 24 -223 68
-183 35 -221 40 -221 29z"/>
<path d="M1545 2787 c-115 -22 -212 -42 -214 -44 -6 -4 84 -212 117 -270 15
-27 28 -40 35 -36 7 4 44 31 84 61 70 52 73 56 137 189 36 74 66 137 66 139 0
5 25 9 -225 -39z"/>
<path d="M1730 2704 c-33 -70 -60 -128 -60 -130 0 -2 26 8 58 23 49 23 68 26
142 24 80 -2 88 -5 140 -39 30 -20 58 -38 62 -40 4 -2 -25 54 -65 124 l-73
128 -59 18 c-33 10 -65 18 -72 18 -7 0 -39 -57 -73 -126z"/>
<path d="M1341 2648 c-2 -19 61 -394 68 -401 4 -4 18 26 31 67 l23 75 -45 98
c-26 54 -53 114 -61 133 -9 19 -16 32 -16 28z"/>
<path d="M3183 2623 c-8 -3 -13 -25 -13 -62 0 -55 -2 -58 -50 -106 l-50 -49
-73 3 c-57 2 -77 7 -94 23 -26 25 -24 26 -52 -29 -28 -56 -27 -69 5 -44 23 18
41 21 123 21 l96 0 67 48 68 47 0 78 c0 75 -2 81 -27 70z"/>
<path d="M3096 2598 c-3 -13 -6 -35 -6 -50 0 -25 -4 -27 -54 -33 -58 -8 -76
-3 -76 21 0 24 -60 -16 -67 -44 -9 -39 18 -56 100 -62 l72 -6 48 44 c45 43 47
47 47 98 0 53 -1 54 -29 54 -21 0 -30 -6 -35 -22z"/>
<path d="M3230 2550 c0 -73 9 -92 97 -209 8 -11 11 11 18 111 l7 107 -53 28
c-30 15 -57 29 -61 31 -5 2 -8 -29 -8 -68z"/>
<path d="M1800 2537 l0 -73 75 -44 74 -44 89 3 89 3 41 -49 c23 -26 42 -42 42
-35 0 19 -79 152 -90 152 -5 0 -14 -9 -20 -20 -9 -18 -21 -20 -94 -20 l-84 0
-46 51 c-40 44 -46 57 -46 94 0 29 -5 45 -15 49 -12 4 -15 -7 -15 -67z"/>
<path d="M3023 2583 c-56 -32 -56 -53 -3 -53 44 0 54 11 48 53 l-3 25 -42 -25z"/>
<path d="M1850 2560 c0 -33 8 -51 36 -86 l36 -44 77 0 c69 0 80 3 100 24 l22
24 -33 25 c-29 23 -34 24 -49 12 -16 -16 -76 -20 -96 -7 -6 4 -13 25 -15 47
-3 38 -5 40 -40 43 l-38 3 0 -41z"/>
<path d="M1950 2561 c0 -40 1 -41 36 -41 45 0 43 21 -3 58 l-33 25 0 -42z"/>
<path d="M1723 2570 l-43 -19 0 -132 0 -132 50 83 c47 78 50 87 50 152 0 37
-3 68 -7 68 -5 0 -27 -9 -50 -20z"/>
<path d="M1624 2522 c-11 -9 -49 -38 -83 -65 l-61 -47 41 -82 c49 -98 147
-258 158 -258 4 0 1 37 -6 83 -8 45 -15 151 -16 234 -1 84 -4 153 -7 153 -3
-1 -14 -8 -26 -18z"/>
<path d="M3366 2502 c-3 -20 -6 -69 -6 -109 0 -39 -9 -117 -20 -173 -24 -122
-25 -146 -3 -105 8 17 51 94 94 172 44 78 79 146 79 150 -1 7 -80 67 -126 95
-8 5 -13 -5 -18 -30z"/>
<path d="M2625 2462 c-55 -19 -102 -37 -103 -38 -2 -1 9 -22 25 -46 48 -70
176 -277 217 -351 32 -59 40 -67 59 -61 29 8 117 46 117 49 0 2 -34 60 -75
130 -73 123 -92 171 -116 298 -6 31 -13 57 -17 56 -4 0 -52 -17 -107 -37z"/>
<path d="M3156 2413 c-47 -32 -66 -52 -63 -63 2 -9 21 -109 42 -223 21 -114
41 -207 45 -207 3 0 29 24 56 53 51 52 51 52 73 168 11 65 21 127 21 140 0 17
-94 179 -104 179 -1 0 -33 -21 -70 -47z"/>
<path d="M1735 2340 l-57 -101 16 -101 16 -101 58 -53 c36 -32 59 -48 63 -40
8 12 100 419 96 421 -28 21 -120 75 -126 75 -5 0 -34 -45 -66 -100z"/>
<path d="M3410 2222 c-83 -158 -116 -210 -166 -262 -56 -59 -64 -73 -85 -150
-24 -85 -24 -86 -6 -118 10 -18 23 -32 27 -32 4 0 25 30 45 68 24 43 72 103
134 167 76 77 111 123 154 201 31 56 59 109 63 118 7 17 -44 206 -55 206 -3 0
-53 -89 -111 -198z"/>
<path d="M2448 2322 c-105 -174 -212 -372 -247 -457 l-37 -91 23 -79 c34 -117
32 -115 54 -73 10 20 22 39 26 41 5 3 49 -6 98 -19 124 -32 221 -32 310 1 37
14 68 24 70 23 1 -2 12 -21 26 -43 l24 -40 14 65 c12 56 12 78 -2 175 -14 101
-20 117 -67 200 -74 129 -231 375 -238 375 -4 0 -28 -35 -54 -78z"/>
<path d="M1451 2301 c-12 -38 -21 -74 -21 -79 0 -6 29 -58 65 -115 l66 -105
52 20 c29 11 54 22 56 24 3 2 -5 14 -16 27 -27 29 -93 138 -138 227 -19 38
-37 70 -39 70 -2 0 -13 -31 -25 -69z"/>
<path d="M1960 2354 c0 -10 109 -307 115 -312 8 -8 10 -5 64 112 l51 109 -31
49 -31 48 -84 0 c-46 0 -84 -3 -84 -6z"/>
<path d="M2836 2326 l-39 -34 69 -116 c38 -63 72 -112 76 -108 4 4 28 57 53
117 26 61 53 125 61 143 l14 32 -97 0 c-96 -1 -99 -1 -137 -34z"/>
<path d="M1940 2325 c0 -5 -21 -101 -46 -213 l-46 -204 22 -89 22 -89 84 135
c46 75 84 139 84 144 0 11 -110 314 -116 320 -2 2 -4 0 -4 -4z"/>
<path d="M3065 2315 c-5 -11 -32 -78 -62 -149 l-53 -129 81 -139 c44 -76 84
-140 89 -143 4 -3 16 25 26 61 l18 67 -33 171 c-46 247 -56 285 -66 261z"/>
<path d="M1612 2003 l-43 -15 86 -84 c47 -46 89 -84 93 -84 5 0 24 19 42 41
l33 42 -60 58 c-66 64 -79 68 -151 42z"/>
<path d="M2875 1965 c-33 -12 -60 -26 -60 -31 0 -5 7 -48 14 -95 11 -69 11
-102 2 -168 -7 -46 -14 -88 -17 -94 -4 -11 275 -138 302 -137 6 0 20 43 32 96
l20 96 -106 179 c-59 98 -111 178 -117 178 -5 -1 -37 -11 -70 -24z"/>
<path d="M1975 1823 c-54 -87 -104 -166 -113 -176 -14 -15 -13 -25 2 -100 10
-46 21 -90 26 -97 6 -10 43 2 156 50 82 34 150 64 152 65 2 2 -8 45 -22 96
-32 116 -32 121 -1 197 14 34 25 68 25 75 0 12 -88 47 -117 47 -6 0 -55 -71
-108 -157z"/>
<path d="M1797 1839 l-36 -45 37 -72 c20 -40 39 -72 42 -72 3 0 13 13 22 28
16 26 15 33 -6 117 l-22 88 -37 -44z"/>
<path d="M2260 1609 l-20 -38 37 -10 c21 -5 54 -13 75 -16 33 -6 38 -12 55
-58 16 -46 23 -53 66 -71 48 -20 49 -20 85 -1 25 14 44 35 59 66 22 45 24 47
92 64 l70 17 -16 32 c-28 55 -28 55 -99 30 -88 -32 -191 -32 -302 0 l-83 24
-19 -39z"/>
<path d="M2060 1485 c-80 -34 -144 -68 -142 -74 1 -6 28 -50 59 -96 l56 -85
86 -27 c47 -14 91 -26 96 -26 6 0 72 24 148 53 l137 53 0 44 c0 42 -1 43 -52
69 -64 32 -188 115 -207 138 -7 9 -19 16 -25 15 -6 0 -76 -29 -156 -64z"/>
<path d="M2723 1490 c-44 -32 -107 -72 -141 -89 -61 -31 -62 -32 -62 -74 l0
-42 143 -53 143 -53 82 22 82 22 62 81 c35 44 69 88 76 97 11 16 6 19 -40 35
-29 9 -101 39 -160 65 l-106 47 -79 -58z"/>
<path d="M2325 1502 c33 -22 62 -38 64 -36 2 2 1 14 -3 27 -4 17 -15 26 -35
30 -16 3 -42 9 -57 12 -22 5 -15 -3 31 -33z"/>
<path d="M2687 1518 c-34 -9 -66 -42 -54 -55 6 -5 97 54 97 62 0 3 -1 5 -2 4
-2 -1 -20 -6 -41 -11z"/>
<path d="M2415 1234 c-92 -39 -91 -39 21 -19 75 14 91 14 165 0 44 -8 84 -15
88 -15 3 1 -32 16 -78 35 -47 19 -92 34 -100 34 -9 -1 -52 -17 -96 -35z"/>
<path d="M2385 1192 c-71 -14 -132 -27 -134 -29 -3 -2 35 -44 84 -93 l90 -90
95 0 96 0 74 85 c41 46 76 88 78 93 2 7 -66 23 -233 56 -11 2 -78 -8 -150 -22z"/>
</g>
</svg>
